<?xml version="1.0" encoding="utf-8"?>
<!-- Generator: Adobe Illustrator 26.0.3, SVG Export Plug-In . SVG Version: 6.00 Build 0)  -->
<svg version="1.1" id="Ebene_1" xmlns="http://www.w3.org/2000/svg" xmlns:xlink="http://www.w3.org/1999/xlink" x="0px" y="0px"
	 viewBox="0 0 204.8 45" style="enable-background:new 0 0 204.8 45;" xml:space="preserve">
<style type="text/css">
	.st0{fill:#FFFFFF;enable-background:new    ;}
</style>
<polygon class="st0" points="0,1 0,8.2 35,8.2 42.1,3.3 42.1,1 "/>
<path class="st0" d="M43.7,30.8c0-7.6-6.1-13.8-13.7-13.9l0,0H7l-7,4.9V24h29.8c3.7,0,6.7,3,6.7,6.7s-3,6.7-6.7,6.7L0,37.5v7.2h30
	l0,0C37.6,44.6,43.7,38.4,43.7,30.8"/>
<path class="st0" d="M68.2,1H72v13.5c0,1.4-0.3,2.7-1,3.9c-0.7,1.1-1.8,2-3,2.6c-2.8,1.3-6,1.3-8.8,0c-1.2-0.6-2.2-1.5-2.9-2.6
	c-0.7-1.2-1-2.5-1-3.9V1H59v13.2c0,0.8,0.2,1.6,0.6,2.3c0.4,0.7,0.9,1.2,1.6,1.6c1.6,0.8,3.4,0.8,4.9,0c0.7-0.4,1.2-0.9,1.6-1.6
	c0.4-0.7,0.6-1.5,0.6-2.3L68.2,1z"/>
<path class="st0" d="M79.3,12.6v9.1h-3.7V6.2h3.5v2.6h0.2C79.6,8,80.2,7.2,81,6.7c0.9-0.5,2-0.8,3-0.7c1,0,1.9,0.2,2.8,0.7
	c0.8,0.5,1.4,1.2,1.8,2c0.5,1,0.7,2.1,0.7,3.2v9.9h-3.7v-9.3c0.1-0.9-0.2-1.8-0.8-2.4c-0.6-0.6-1.4-0.9-2.2-0.9
	c-0.6,0-1.2,0.1-1.7,0.4c-0.5,0.3-0.9,0.7-1.2,1.2C79.5,11.3,79.3,11.9,79.3,12.6z"/>
<path class="st0" d="M94.7,4c-0.6,0-1.1-0.2-1.5-0.6C92.8,3,92.6,2.5,92.6,2s0.2-1,0.6-1.4s1-0.6,1.5-0.6c0.6,0,1.1,0.2,1.5,0.6
	s0.6,0.9,0.6,1.4s-0.2,1-0.6,1.4C95.8,3.8,95.3,4,94.7,4z M92.9,21.6V6.2h3.7v15.5h-3.7V21.6z"/>
<path class="st0" d="M129.3,13.8c0-1.2-0.2-2.4-0.6-3.5c-0.3-0.9-0.9-1.7-1.5-2.4c-0.6-0.6-1.4-1.1-2.2-1.4
	c-0.9-0.3-1.8-0.5-2.8-0.4c-1.4,0-2.7,0.3-3.9,1c-1.1,0.7-2,1.7-2.6,2.8c-0.6,1.3-0.9,2.7-0.9,4.2s0.3,2.9,0.9,4.2
	c0.6,1.2,1.5,2.1,2.6,2.8c1.2,0.7,2.6,1,4,1c1.1,0,2.2-0.2,3.2-0.5c0.9-0.3,1.7-0.9,2.3-1.5c0.6-0.7,1-1.5,1.2-2.4l-3.4-0.4
	c-0.1,0.4-0.4,0.8-0.7,1.1c-0.3,0.3-0.7,0.5-1.1,0.7c-0.5,0.2-1,0.2-1.4,0.2c-0.7,0-1.4-0.2-2.1-0.5c-0.6-0.4-1.1-0.9-1.4-1.5
	c-0.3-0.7-0.5-1.5-0.5-2.2h10.8L129.3,13.8z M118.6,12.4c0-0.6,0.2-1.2,0.5-1.7c0.3-0.6,0.8-1.1,1.3-1.4c0.6-0.4,1.3-0.6,2-0.5
	c0.6,0,1.3,0.2,1.8,0.5s1,0.8,1.2,1.3c0.3,0.6,0.5,1.2,0.4,1.9h-7.2V12.4z"/>
<path class="st0" d="M132.3,21.6V6.2h3.5v2.6h0.1c0.2-0.8,0.7-1.6,1.4-2.1s1.5-0.7,2.3-0.7c0.5,0,1,0,1.4,0.1v3.3
	c-0.2-0.1-0.5-0.1-0.7-0.1c-0.3,0-0.7-0.1-1-0.1c-0.6,0-1.2,0.1-1.8,0.4c-0.5,0.3-0.9,0.7-1.2,1.2s-0.5,1.1-0.4,1.7v9.1
	C135.9,21.6,132.3,21.6,132.3,21.6z"/>
<path class="st0" d="M155.3,10.2l-3.3,0.4c-0.1-0.4-0.3-0.7-0.5-1c-0.3-0.3-0.6-0.6-0.9-0.7c-0.5-0.2-0.9-0.3-1.4-0.3
	c-0.7,0-1.3,0.2-1.9,0.5c-0.5,0.3-0.8,0.8-0.8,1.3c0,0.4,0.2,0.8,0.5,1.1c0.5,0.4,1.1,0.6,1.7,0.7l2.6,0.6c1.2,0.2,2.3,0.7,3.3,1.5
	c0.7,0.7,1.1,1.7,1.1,2.7c0,0.9-0.3,1.8-0.9,2.6c-0.6,0.8-1.4,1.4-2.3,1.7c-1.1,0.5-2.3,0.7-3.5,0.7c-1.6,0.1-3.2-0.3-4.6-1.2
	c-1.1-0.8-1.9-2-2.1-3.3l3.6-0.3c0.1,0.6,0.5,1.2,1,1.6c0.6,0.4,1.3,0.6,2,0.5c0.7,0,1.5-0.2,2.1-0.5c0.5-0.3,0.8-0.8,0.8-1.3
	c0-0.4-0.2-0.8-0.5-1.1c-0.5-0.3-1-0.6-1.6-0.7l-2.5-0.6c-1.2-0.2-2.4-0.7-3.3-1.6c-0.7-0.7-1.1-1.8-1.1-2.8c0-0.9,0.3-1.8,0.8-2.5
	c0.6-0.7,1.3-1.3,2.2-1.6c1-0.4,2.1-0.6,3.3-0.5c1.9,0,3,0.3,4.3,1.2C154.4,7.9,155.1,9,155.3,10.2z"/>
<path class="st0" d="M163,22c-0.9,0-1.8-0.2-2.6-0.5s-1.4-0.9-1.9-1.6c-0.5-0.8-0.7-1.7-0.7-2.6c0-0.8,0.1-1.5,0.5-2.2
	c0.3-0.6,0.8-1,1.3-1.4c0.6-0.4,1.2-0.6,1.9-0.8s1.5-0.3,2.2-0.4c0.9-0.1,1.6-0.2,2.2-0.2c0.4,0,0.9-0.2,1.2-0.4s0.4-0.5,0.4-0.8V11
	c0-0.7-0.2-1.3-0.7-1.8c-0.5-0.4-1.2-0.7-1.9-0.7c-0.8,0-1.5,0.2-2.1,0.6c-0.5,0.3-0.8,0.8-1,1.4l-3.4-0.5c0.2-0.9,0.7-1.7,1.3-2.4
	c0.6-0.6,1.4-1.1,2.2-1.4c1-0.3,2-0.5,3-0.5c0.7,0,1.5,0.1,2.2,0.3c0.7,0.2,1.4,0.5,2,0.9s1.1,1,1.5,1.6c0.4,0.8,0.6,1.7,0.6,2.6
	v10.4h-3.5v-2.1h-0.1c-0.2,0.4-0.6,0.9-0.9,1.2c-0.4,0.4-0.9,0.7-1.5,0.9C164.5,21.9,163.7,22,163,22z M164,19.3
	c0.7,0,1.3-0.1,1.9-0.4c0.5-0.3,0.9-0.7,1.2-1.2s0.4-1,0.4-1.6v-1.8c-0.2,0.1-0.4,0.2-0.6,0.3c-0.3,0.1-0.6,0.2-0.9,0.2l-1,0.2
	l-0.9,0.1c-0.5,0.1-1,0.2-1.5,0.4c-0.4,0.1-0.7,0.4-1,0.7c-0.3,0.3-0.4,0.7-0.4,1.1c0,0.6,0.2,1.2,0.7,1.5
	C162.7,19.1,163.3,19.3,164,19.3L164,19.3z"/>
<path class="st0" d="M178.4,1v20.7h-3.6V1H178.4z"/>
<path class="st0" d="M59.3,24v20.7h-3.7V24H59.3z"/>
<path class="st0" d="M66.8,35.6v9.1h-3.6V29.2h3.5v2.6h0.2c0.3-0.8,0.9-1.6,1.7-2.1c0.9-0.5,1.9-0.8,2.9-0.8s1.9,0.2,2.8,0.7
	c0.8,0.5,1.4,1.2,1.8,2c0.5,1,0.7,2.1,0.7,3.2v9.9h-3.7v-9.3c0.1-0.9-0.2-1.8-0.8-2.4c-0.6-0.6-1.4-0.9-2.2-0.9
	c-0.6,0-1.2,0.1-1.7,0.4c-0.5,0.3-0.9,0.7-1.2,1.2C66.9,34.3,66.8,35,66.8,35.6z"/>
<path class="st0" d="M123.6,33.3l-3.3,0.4c-0.1-0.4-0.3-0.7-0.5-1s-0.6-0.6-0.9-0.7c-0.4-0.2-0.9-0.3-1.4-0.3
	c-0.7,0-1.3,0.2-1.9,0.5c-0.5,0.3-0.8,0.7-0.8,1.3c0,0.4,0.2,0.8,0.5,1.1c0.5,0.4,1.1,0.6,1.7,0.7l2.7,0.6c1.2,0.2,2.3,0.7,3.3,1.5
	c0.7,0.7,1.1,1.7,1.1,2.7c0,0.9-0.3,1.8-0.8,2.6c-0.6,0.8-1.4,1.4-2.3,1.7c-1.1,0.4-2.3,0.6-3.4,0.6c-1.6,0.1-3.2-0.3-4.6-1.2
	c-1.1-0.8-1.9-2-2.1-3.3l3.6-0.3c0.1,0.6,0.5,1.2,1,1.6c0.6,0.4,1.3,0.6,2,0.5c0.7,0,1.5-0.2,2.1-0.5c0.5-0.3,0.8-0.8,0.8-1.3
	c0-0.4-0.2-0.8-0.5-1.1c-0.5-0.3-1-0.6-1.6-0.7l-2.6-0.5c-1.2-0.2-2.4-0.7-3.3-1.6c-0.7-0.7-1.1-1.8-1.1-2.8c0-0.9,0.2-1.8,0.8-2.5
	c0.6-0.7,1.3-1.3,2.2-1.6c1-0.4,2.2-0.6,3.3-0.6c1.5-0.1,3,0.3,4.3,1.2C122.7,30.9,123.4,32,123.6,33.3z"/>
<path class="st0" d="M134.2,41.7l-0.4,0.1c-0.2,0-0.4,0.1-0.6,0.1c-0.3,0-0.6,0-0.8-0.2c-0.3-0.1-0.5-0.3-0.6-0.5
	c-0.2-0.4-0.3-0.7-0.2-1.1v-8h3.1v-2.8h-3.1v-3.7h-3.7v3.7h-2.2V32h2.2v8.6c0,0.9,0.2,1.7,0.6,2.4c0.4,0.6,1,1.1,1.7,1.4
	c0.8,0.3,1.6,0.5,2.5,0.4c0.4,0,0.9-0.1,1.3-0.1c0.4-0.1,0.6-0.2,0.8-0.2L134.2,41.7z"/>
<path class="st0" d="M137.7,44.7V29.2h3.5v2.6h0.2c0.3-0.8,0.9-1.6,1.6-2.1c0.8-0.5,1.7-0.8,2.7-0.8c0.9,0,1.9,0.2,2.7,0.8
	c0.7,0.5,1.3,1.2,1.5,2.1h0.2c0.3-0.9,1-1.6,1.7-2.1c0.9-0.5,1.9-0.8,2.9-0.8c1.3,0,2.6,0.4,3.5,1.4c1,1.1,1.5,2.5,1.4,3.9v10.4
	h-3.7v-9.8c0.1-0.8-0.2-1.6-0.8-2.1c-0.5-0.5-1.2-0.7-1.9-0.7c-0.8,0-1.5,0.3-2.1,0.8c-0.5,0.6-0.8,1.4-0.7,2.1v9.7h-3.6v-10
	c0.1-1.4-0.9-2.5-2.3-2.6c-0.1,0-0.2,0-0.3,0c-0.5,0-1,0.1-1.4,0.4s-0.8,0.7-1,1.1c-0.3,0.5-0.4,1.1-0.4,1.7v9.4L137.7,44.7z"/>
<path class="st0" d="M176.8,36.8c0-1.2-0.2-2.4-0.6-3.5c-0.3-0.9-0.9-1.7-1.6-2.4c-0.6-0.6-1.4-1.1-2.3-1.4
	c-0.9-0.3-1.8-0.5-2.7-0.5c-1.4,0-2.7,0.3-3.9,1c-1.1,0.7-2,1.7-2.6,2.8c-0.6,1.3-0.9,2.7-0.9,4.2s0.3,2.9,0.9,4.2
	c0.6,1.1,1.5,2.1,2.6,2.7c1.2,0.7,2.6,1,4,1c1.1,0,2.2-0.2,3.2-0.5c0.9-0.3,1.7-0.9,2.3-1.5c0.6-0.7,1-1.5,1.2-2.4l-3.4-0.4
	c-0.2,0.4-0.4,0.8-0.7,1.1s-0.7,0.5-1.1,0.7c-0.5,0.2-1,0.2-1.4,0.2c-0.7,0-1.4-0.2-2.1-0.5c-0.6-0.3-1.1-0.9-1.4-1.5
	c-0.3-0.7-0.5-1.4-0.5-2.2h10.8v-1.1H176.8z M166,35.5c0-0.6,0.2-1.2,0.5-1.7c0.3-0.6,0.8-1.1,1.3-1.4c0.6-0.4,1.3-0.6,2-0.5
	c0.6,0,1.3,0.2,1.8,0.5s0.9,0.8,1.2,1.3c0.3,0.6,0.5,1.2,0.5,1.9L166,35.5L166,35.5z"/>
<path class="st0" d="M183.4,35.6v9.1h-3.6V29.2h3.5v2.6h0.2c0.3-0.8,0.9-1.6,1.7-2.1c0.9-0.5,1.9-0.8,2.9-0.8s1.9,0.2,2.8,0.7
	c0.8,0.5,1.5,1.2,1.9,2c0.5,1,0.7,2.1,0.6,3.2v9.9h-3.6v-9.3c0-0.9-0.2-1.7-0.8-2.4c-0.6-0.6-1.4-0.9-2.2-0.9
	c-0.6,0-1.2,0.1-1.7,0.4c-0.5,0.3-0.9,0.7-1.1,1.2C183.6,34.3,183.4,35,183.4,35.6z"/>
<path class="st0" d="M204.2,41.7c-0.1,0-0.3,0.1-0.4,0.1c-0.2,0-0.4,0.1-0.6,0.1c-0.3,0-0.6,0-0.8-0.2c-0.3-0.1-0.5-0.3-0.6-0.5
	c-0.2-0.4-0.3-0.7-0.2-1.1v-8h3.1v-2.8h-3.1v-3.7H198v3.7h-2.2V32h2.2v8.6c0,0.9,0.2,1.7,0.6,2.4c0.4,0.6,1,1.1,1.7,1.4
	c0.8,0.3,1.6,0.5,2.5,0.4c0.4,0,0.9-0.1,1.3-0.1c0.4-0.1,0.6-0.2,0.8-0.2L204.2,41.7z"/>
<polygon class="st0" points="110.1,6.2 106.6,17.7 106.4,17.7 102.9,6.2 99,6.2 104.5,21.6 108.5,21.6 114,6.2 "/>
<path class="st0" d="M108.6,36.8c0-1.2-0.2-2.4-0.6-3.5c-0.3-0.9-0.9-1.7-1.6-2.4c-0.6-0.6-1.4-1.1-2.3-1.4s-1.8-0.5-2.7-0.5
	c-1.4,0-2.7,0.3-3.9,1c-1.1,0.7-2,1.7-2.6,2.8C94.3,34.1,94,35.5,94,37s0.3,2.9,0.9,4.2c0.6,1.1,1.5,2.1,2.6,2.7c1.2,0.7,2.6,1,4,1
	c1.1,0,2.2-0.2,3.2-0.5c0.9-0.3,1.7-0.9,2.3-1.5c0.6-0.7,1-1.5,1.2-2.3l-3.4-0.4c-0.1,0.4-0.4,0.8-0.7,1.1c-0.3,0.3-0.7,0.5-1.1,0.7
	c-0.5,0.2-1,0.2-1.4,0.2c-0.7,0-1.4-0.2-2.1-0.5c-0.6-0.3-1.1-0.9-1.4-1.5c-0.3-0.7-0.5-1.4-0.5-2.2h10.8v-1.2H108.6z M97.9,35.5
	c0-0.6,0.2-1.2,0.5-1.7c0.3-0.6,0.8-1.1,1.3-1.4c0.6-0.4,1.3-0.6,2-0.5c0.6,0,1.3,0.1,1.8,0.5c0.5,0.3,0.9,0.8,1.2,1.3
	c0.3,0.6,0.5,1.2,0.5,1.9L97.9,35.5L97.9,35.5z"/>
<polygon class="st0" points="89.4,29.3 85.9,40.7 85.7,40.7 82.2,29.3 78.3,29.3 83.8,44.7 87.8,44.7 93.3,29.3 "/>
</svg>
